<?xml version="1.0" encoding="UTF-8"?>
<svg xmlns="http://www.w3.org/2000/svg" viewBox="0 0 160 160">
  <defs>
    <style>
      .cls-1 {
        fill: #fffef9;
      }

      .cls-2 {
        fill: #f0f;
      }

      .cls-3 {
        fill: #30302f;
      }
    </style>
  </defs>
  <g id="Layer_2" data-name="Layer 2">
    <rect class="cls-1" width="160" height="160" rx="39.65" ry="39.65"/>
  </g>
  <g id="Layer_1" data-name="Layer 1">
    <path class="cls-2" d="M85.72,11.02c10.59-5.51,23.68-1.38,29.19,9.21l34.08,65.49c5.51,10.59,1.38,23.68-9.21,29.19l-65.49,34.08c-10.59,5.51-23.68,1.38-29.19-9.21L11.02,74.28c-5.51-10.59-1.38-23.68,9.21-29.19L85.72,11.02"/>
    <path class="cls-3" d="M120.35,10c16.35,0,29.65,13.3,29.65,29.65v80.69c0,16.35-13.3,29.65-29.65,29.65H39.65c-16.35,0-29.65-13.3-29.65-29.65V39.65c0-16.35,13.3-29.65,29.65-29.65h80.69M120.35,0H39.65C17.84,0,0,17.84,0,39.65v80.69c0,21.81,17.84,39.65,39.65,39.65h80.69c21.81,0,39.65-17.84,39.65-39.65V39.65c0-21.81-17.84-39.65-39.65-39.65h0Z"/>
  </g>
  <g id="Layer_4" data-name="Layer 4">
    <path class="cls-1" d="M36.39,116.9c2.06-21.26,19.6-35.16,38.24-42.6,9.51-3.79,19.73-6.6,29.88-7.93,14.04-1.85,27.11-4.9,37.86-14.75,7.13-6.54-3.5-17.12-10.61-10.61-10.26,9.41-23.88,9.3-36.74,11.81-11.46,2.24-22.67,5.78-33.21,10.83-21.81,10.44-38.02,28.6-40.41,53.24-.93,9.6,14.08,9.54,15,0h0Z"/>
  </g>
</svg>
